#Comment line ignore any data following # character 
#Hierarchical Translation and Rotation (.htr) file 
[Header]	
#Header keywords are followed by a single value 
FileType HTR		#Single word string
DataType HTRS		#Translation followed by rotation and scale data
FileVersion 1		#integer
NumSegments 23		#integer
NumFrames 6		#integer
DataFrameRate 30		#integer, data frame rate in this file
EulerRotationOrder ZYX
CalibrationUnits mm
RotationUnits Degrees
GlobalAxisofGravity Y
BoneLengthAxis Y
ScaleFactor 1.00
[SegmentNames&Hierarchy]
#CHILD	PARENT
MASTER GLOBAL
weapon MASTER
arm_lock_bottom_part1 weapon
arm_lock_bottom_part2 weapon
arm_lock_bottom_part3 weapon
arm_lock_bottom_part4 weapon
arm_lock_top_part1 weapon
arm_lock_top_part2 weapon
arm_lock_top_part3 weapon
front_lower_left_part1 weapon
front_lower_right_part1 weapon
front_top_left_part weapon
front_top_right_part1 weapon
scope_part1 weapon
scope_part2 weapon
front_lower_left_part2 front_lower_left_part1
front_lower_left_part3 front_lower_left_part2
front_lower_right_part2 front_lower_right_part1
front_lower_right_part3 front_lower_right_part2
front_top_left_part2 front_top_left_part
front_top_left_part3 front_top_left_part2
front_top_right_part2 front_top_right_part1
front_top_right_part3 front_top_right_part2
[BasePosition]
#SegmentName Tx, Ty, Tz, Rx, Ry, Rz, BoneLength
MASTER 0.000000 0.000000 0.000000 -90.000000 0.000000 0.000000 10.000000 
weapon 0.000000 0.000000 0.000000 0.000000 0.000000 0.000000 10.000000 
arm_lock_bottom_part1 0.000000 0.000000 0.000000 0.000000 0.000000 0.000000 10.000000 
arm_lock_bottom_part2 0.000000 0.000000 0.000000 0.000000 0.000000 0.000000 10.000000 
arm_lock_bottom_part3 0.000000 0.000000 0.000000 0.000000 0.000000 0.000000 10.000000 
arm_lock_bottom_part4 0.000000 0.000000 0.000000 0.000000 0.000000 0.000000 10.000000 
arm_lock_top_part1 0.000000 0.000000 0.000000 0.000000 0.000000 0.000000 10.000000 
arm_lock_top_part2 0.000000 0.000000 0.000000 0.000000 0.000000 0.000000 10.000000 
arm_lock_top_part3 0.000000 0.000000 0.000000 0.000000 0.000000 0.000000 10.000000 
front_lower_left_part1 0.000000 0.000000 0.000000 0.000000 0.000000 0.000000 10.000000 
front_lower_right_part1 0.000000 0.000000 0.000000 0.000000 0.000000 0.000000 10.000000 
front_top_left_part 0.000000 0.000000 0.000000 0.000000 0.000000 0.000000 10.000000 
front_top_right_part1 0.000000 0.000000 0.000000 0.000000 0.000000 0.000000 10.000000 
scope_part1 0.000000 0.000000 0.000000 0.000000 0.000000 0.000000 10.000000 
scope_part2 0.000000 0.000000 0.000000 0.000000 0.000000 0.000000 10.000000 
front_lower_left_part2 0.000000 0.000000 0.000000 0.000000 0.000000 0.000000 10.000000 
front_lower_left_part3 0.000000 0.000000 0.000000 0.000000 0.000000 0.000000 10.000000 
front_lower_right_part2 0.000000 0.000000 0.000000 0.000000 0.000000 0.000000 10.000000 
front_lower_right_part3 0.000000 0.000000 0.000000 0.000000 0.000000 0.000000 10.000000 
front_top_left_part2 0.000000 0.000000 0.000000 0.000000 0.000000 0.000000 10.000000 
front_top_left_part3 0.000000 0.000000 0.000000 0.000000 0.000000 0.000000 10.000000 
front_top_right_part2 0.000000 0.000000 0.000000 0.000000 0.000000 0.000000 10.000000 
front_top_right_part3 0.000000 0.000000 0.000000 0.000000 0.000000 0.000000 10.000000 
#Beginning of Data. Separated by tabs
#Fr	Tx	Ty	Tz	Rx	Ry	Rz	SF
[MASTER]
29 0.000000 -0.000019 0.000002 0.002458 -0.000000 0.000000 0.000019
30 0.000000 -0.000019 0.000002 0.002458 -0.000000 0.000000 0.000019
31 0.000000 -0.000019 0.000002 0.002458 -0.000000 0.000000 0.000019
32 0.000000 -0.000019 0.000002 0.002458 -0.000000 0.000000 0.000019
33 0.000000 -0.000019 0.000002 0.002458 -0.000000 0.000000 0.000019
34 0.000000 -0.000019 0.000002 0.002458 -0.000000 0.000000 0.000019
[weapon]
29 10.182476 -168.977890 -13.084106 -0.002473 -0.000000 -0.000020 169.789291
30 10.182457 -168.977844 -13.084106 -0.002473 -0.000000 -0.000020 169.789246
31 10.182476 -168.977936 -13.084106 -0.002473 -0.000000 -0.000020 169.789337
32 10.182457 -168.977844 -13.084106 -0.002473 -0.000000 -0.000020 169.789246
33 10.182476 -168.977844 -13.084106 -0.002473 -0.000000 -0.000020 169.789246
34 10.182457 -168.977844 -13.084106 -0.002473 -0.000000 -0.000020 169.789246
[arm_lock_bottom_part1]
29 -48.820000 98.566170 -83.498993 179.999985 0.000004 9.388626 138.096939
30 -48.820000 98.566208 -83.498993 179.999985 0.000004 9.388626 138.096970
31 -48.820019 98.566170 -83.498993 179.999985 0.000004 9.388626 138.096939
32 -48.820000 98.566208 -83.498993 179.999985 0.000004 9.388626 138.096970
33 -48.820000 98.566170 -83.498993 179.999985 0.000004 9.388626 138.096939
34 -48.820000 98.566208 -83.498993 179.999985 0.000004 9.388626 138.096970
[arm_lock_bottom_part2]
29 -49.022751 58.782005 -78.526535 -179.999985 -0.000001 6.576765 109.658424
30 -49.022766 58.782005 -78.526535 -179.999985 -0.000001 6.576765 109.658440
31 -49.022751 58.781967 -78.526535 -179.999985 -0.000001 6.576765 109.658409
32 -49.022766 58.782005 -78.526535 -179.999985 -0.000001 6.576765 109.658440
33 -49.022766 58.781967 -78.526535 -179.999985 -0.000001 6.576765 109.658417
34 -49.022766 58.782005 -78.526535 -179.999985 -0.000001 6.576765 109.658440
[arm_lock_bottom_part3]
29 -51.266422 -16.798210 -66.920395 -179.999985 -0.000001 4.326176 85.957924
30 -51.266422 -16.798210 -66.920395 -179.999985 -0.000001 4.326176 85.957924
31 -51.266422 -16.798210 -66.920395 -179.999985 -0.000001 4.326176 85.957924
32 -51.266422 -16.798210 -66.920395 -179.999985 -0.000001 4.326176 85.957924
33 -51.266422 -16.798248 -66.920395 -179.999985 -0.000001 4.326176 85.957932
34 -51.266422 -16.798210 -66.920395 -179.999985 -0.000001 4.326176 85.957924
[arm_lock_bottom_part4]
29 -40.078068 -93.503113 -59.330063 -179.999985 -0.000000 1.322129 117.767311
30 -40.078102 -93.503113 -59.330063 -179.999985 -0.000000 1.322129 117.767326
31 -40.078083 -93.503098 -59.330063 -179.999985 -0.000000 1.322129 117.767311
32 -40.078102 -93.503113 -59.330063 -179.999985 -0.000000 1.322129 117.767326
33 -40.078083 -93.503136 -59.330063 -179.999985 -0.000000 1.322129 117.767326
34 -40.078102 -93.503113 -59.330063 -179.999985 -0.000000 1.322129 117.767326
[arm_lock_top_part1]
29 -47.532539 61.554489 78.379364 0.000000 -0.000000 -9.999999 110.415680
30 -47.532558 61.554489 78.379364 0.000000 -0.000000 -9.999999 110.415680
31 -47.532558 61.554451 78.379364 0.000000 -0.000000 -9.999999 110.415672
32 -47.532558 61.554489 78.379364 0.000000 -0.000000 -9.999999 110.415680
33 -47.532558 61.554451 78.379364 0.000000 -0.000000 -9.999999 110.415672
34 -47.532558 61.554489 78.379364 0.000000 -0.000000 -9.999999 110.415680
[arm_lock_top_part2]
29 -45.622673 13.709908 63.393555 0.000000 -0.000000 -7.722126 79.297745
30 -45.622673 13.709908 63.393555 0.000000 -0.000000 -7.722126 79.297745
31 -45.622673 13.709908 63.393555 0.000000 -0.000000 -7.722126 79.297745
32 -45.622673 13.709908 63.393555 0.000000 -0.000000 -7.722126 79.297745
33 -45.622673 13.709869 63.393555 0.000000 -0.000000 -7.722126 79.297745
34 -45.622673 13.709908 63.393555 0.000000 -0.000000 -7.722126 79.297745
[arm_lock_top_part3]
29 -43.788525 -73.747231 72.061615 0.000000 0.000000 -4.533067 112.022163
30 -43.788544 -73.747208 72.061615 0.000000 0.000000 -4.533067 112.022163
31 -43.788544 -73.747208 72.061615 0.000000 0.000000 -4.533067 112.022163
32 -43.788544 -73.747208 72.061615 0.000000 0.000000 -4.533067 112.022163
33 -43.788525 -73.747253 72.061615 0.000000 0.000000 -4.533067 112.022179
34 -43.788544 -73.747208 72.061615 0.000000 0.000000 -4.533067 112.022163
[front_lower_left_part1]
29 -46.798515 475.071045 -43.538895 -17.980036 0.000052 32.194084 479.351898
30 -46.798534 475.071045 -43.538895 -17.980034 0.000051 32.194077 479.351898
31 -46.798515 475.070892 -43.538815 -17.980034 0.000051 32.194077 479.351715
32 -46.798534 475.071045 -43.538895 -17.980034 0.000051 32.194077 479.351898
33 -46.798534 475.071014 -43.538895 -17.980034 0.000051 32.194073 479.351868
34 -46.798534 475.071045 -43.538895 -17.980034 0.000051 32.194073 479.351898
[front_lower_right_part1]
29 26.433447 475.070984 -43.538895 -17.167982 -0.000012 -27.317896 477.793671
30 26.433468 475.070984 -43.538742 -17.167982 -0.000012 -27.317894 477.793671
31 26.433468 475.070984 -43.538895 -17.167982 -0.000012 -27.317894 477.793671
32 26.433468 475.070984 -43.538742 -17.167982 -0.000012 -27.317894 477.793671
33 26.433447 475.070953 -43.538895 -17.167982 -0.000012 -27.317894 477.793640
34 26.433468 475.070984 -43.538742 -17.167982 -0.000012 -27.317896 477.793671
[front_top_left_part]
29 -47.897205 494.788910 7.030945 -0.000000 0.000003 -0.000001 497.151520
30 -47.897224 494.788910 7.030945 -0.000000 0.000003 -0.000001 497.151520
31 -47.897205 494.788849 7.030945 -0.000000 0.000003 -0.000001 497.151459
32 -47.897224 494.788910 7.030945 -0.000000 0.000003 -0.000001 497.151520
33 -47.897224 494.788879 7.030945 -0.000000 0.000003 -0.000001 497.151489
34 -47.897224 494.788910 7.030945 -0.000000 0.000003 -0.000001 497.151520
[front_top_right_part1]
29 27.532120 494.788910 7.031097 0.000000 -0.000000 -0.000000 495.604218
30 27.532139 494.788910 7.031097 0.000000 -0.000000 -0.000000 495.604218
31 27.532177 494.788757 7.031097 0.000000 -0.000000 -0.000000 495.604065
32 27.532139 494.788910 7.031097 0.000000 -0.000000 -0.000000 495.604218
33 27.532156 494.788879 7.031097 0.000000 -0.000000 -0.000000 495.604187
34 27.532139 494.788910 7.031097 0.000000 -0.000000 -0.000000 495.604218
[scope_part1]
29 -10.754299 87.338936 156.453094 -5.047156 -13.639525 1.193205 179.502960
30 -10.754299 87.338936 156.453094 -5.045275 -13.551306 1.185087 179.502960
31 -10.754318 87.338936 156.453094 -5.043515 -13.466342 1.177451 179.502960
32 -10.754299 87.338936 156.453094 -5.041763 -13.384966 1.169976 179.502960
33 -10.754318 87.338905 156.453094 -5.040154 -13.307692 1.163024 179.502960
34 -10.754299 87.338936 156.453094 -5.038687 -13.237305 1.156638 179.502960
[scope_part2]
29 -10.754280 82.597351 156.859894 -5.582421 28.493893 -2.669723 177.603500
30 -10.754299 82.597351 156.859894 -5.577005 28.391989 -2.658314 177.603500
31 -10.754299 82.597351 156.859894 -5.571898 28.293745 -2.647509 177.603500
32 -10.754299 82.597351 156.859894 -5.566879 28.199741 -2.636978 177.603500
33 -10.754318 82.597305 156.859894 -5.562295 28.110352 -2.627138 177.603470
34 -10.754299 82.597351 156.859894 -5.558072 28.029045 -2.618156 177.603500
[front_lower_left_part2]
29 -55.193634 141.618393 32.268219 0.000000 -0.000000 13.398114 155.381271
30 -55.193634 141.618408 32.268219 0.000000 -0.000000 13.319691 155.381317
31 -55.193481 141.618454 32.268372 0.000000 -0.000000 13.241265 155.381332
32 -55.193634 141.618408 32.268219 0.000000 -0.000000 13.169075 155.381317
33 -55.193558 141.618347 32.268372 0.000000 -0.000000 13.101713 155.381241
34 -55.193634 141.618408 32.268219 0.000000 -0.000000 13.039488 155.381317
[front_lower_left_part3]
29 -10.943755 108.509552 -11.125030 35.809177 -8.106820 -25.159155 109.625984
30 -10.943755 108.509369 -11.124877 35.817158 -8.066236 -25.215994 109.625778
31 -10.943831 108.509369 -11.125030 35.825096 -8.025643 -25.272820 109.625801
32 -10.943831 108.509407 -11.124877 35.832886 -7.985545 -25.328804 109.625824
33 -10.943755 108.509521 -11.124877 35.840611 -7.945977 -25.384129 109.625931
34 -10.943909 108.509407 -11.124877 35.848091 -7.907081 -25.438496 109.625832
[front_lower_right_part2]
29 55.193665 141.618271 32.268372 0.000000 0.000000 -17.547167 155.381226
30 55.193668 141.618195 32.268372 0.000000 0.000000 -17.491341 155.381149
31 55.193684 141.618195 32.268219 0.000000 0.000000 -17.438961 155.381119
32 55.193668 141.618195 32.268372 0.000000 0.000000 -17.390648 155.381149
33 55.193665 141.618195 32.268372 0.000000 0.000000 -17.346401 155.381149
34 55.193668 141.618195 32.268372 0.000000 0.000000 -17.307011 155.381149
[front_lower_right_part3]
29 10.943851 108.509445 -11.124877 35.352798 10.139905 22.281660 109.625862
30 10.943831 108.509590 -11.124725 35.360462 10.109447 22.325285 109.625992
31 10.943947 108.509521 -11.124725 35.368019 10.079214 22.368481 109.625931
32 10.943793 108.509552 -11.124573 35.375488 10.049402 22.411133 109.625938
33 10.943813 108.509445 -11.124725 35.382790 10.020072 22.453108 109.625847
34 10.943793 108.509590 -11.124877 35.389996 9.991200 22.494398 109.625999
[front_top_left_part2]
29 -84.251366 137.398605 57.130581 9.843823 0.673565 18.409204 170.998749
30 -84.113060 137.398911 57.122799 9.843244 0.684168 18.348522 170.928299
31 -83.986725 137.399216 57.115784 9.842749 0.693766 18.293100 170.864059
32 -83.873581 137.399429 57.109528 9.842288 0.702389 18.243414 170.806549
33 -83.774681 137.399673 57.104187 9.841847 0.709918 18.200071 170.756424
34 -83.691170 137.399826 57.099606 9.841512 0.716316 18.163393 170.714050
[front_top_left_part3]
29 -28.216400 149.656906 49.959564 -26.042927 -2.078644 -62.781815 160.278854
30 -28.216438 149.656906 49.959564 -26.041119 -2.103156 -62.832016 160.278870
31 -28.216362 149.656738 49.959564 -26.039278 -2.127666 -62.882191 160.278702
32 -28.216476 149.656906 49.959641 -26.037466 -2.151523 -62.930981 160.278900
33 -28.216400 149.656982 49.959488 -26.035685 -2.174811 -62.978806 160.278900
34 -28.216400 149.657059 49.959641 -26.033934 -2.197144 -63.024521 160.279022
[front_top_right_part2]
29 78.737869 137.565460 52.851257 8.088274 0.952117 -21.462049 167.084305
30 78.613892 137.565231 52.858120 8.089509 0.942485 -21.394281 167.027893
31 78.499107 137.565002 52.864380 8.090621 0.933590 -21.331514 166.975693
32 78.394394 137.564758 52.870178 8.091621 0.925916 -21.277262 166.928131
33 78.300659 137.564545 52.875366 8.092611 0.918240 -21.223007 166.885590
34 78.218842 137.564392 52.879791 8.093491 0.911860 -21.178205 166.848495
[front_top_right_part3]
29 28.216576 149.656982 49.959641 -25.911869 3.411425 65.519691 160.278976
30 28.216476 149.656906 49.959641 -25.909348 3.431718 65.561508 160.278900
31 28.216568 149.656830 49.959564 -25.906851 3.451690 65.602676 160.278824
32 28.216534 149.657135 49.959793 -25.904383 3.471333 65.643166 160.279175
33 28.216421 149.657135 49.959641 -25.901979 3.490571 65.682999 160.279099
34 28.216482 149.657135 49.959717 -25.899624 3.509406 65.721832 160.279129
